{
.appVersion = "1141";
DisplayStrings = (
"ABCDEFGHIJKLMNOPQRSTUVWXYZ..abcdefghijklmnopqrstuvwxyz....................\012AIAOAAAAOAOAOAOAOAOAOAO"
);
copyright = "Copyright 2018 The Woodbine Project Authors (https://github.com/eliheuer/woodbine), with Reserved Font Name \"Woodbine\".";
customParameters = (
{
name = trademark;
value = foobar;
},
{
name = license;
value = "This Font Software is licensed under the SIL Open Font License, Version 1.1. This license is available with a FAQ at: http://scripts.sil.org/OFL";
},
{
name = licenseURL;
value = "http://scripts.sil.org/OFL";
},
{
name = fsType;
value = (
);
},
{
name = Axes;
value = (
{
Name = Weight;
Tag = wght;
}
);
}
);
date = "2018-05-29 23:53:52 +0000";
designer = "Eli Heuer";
designerURL = "https://elih.blog";
disablesNiceNames = 1;
familyName = Woodbine;
fontMaster = (
{
ascender = 750;
capHeight = 700;
descender = -250;
id = "943837FD-2EA4-424D-A655-FFF98A08080F";
visible = 1;
xHeight = 500;
},
{
ascender = 800;
capHeight = 700;
custom = Black;
descender = -200;
iconName = Bold;
id = "4B9CF309-7C6C-4E8F-98F9-807C6FC76924";
weightValue = 200;
xHeight = 500;
}
);
glyphs = (
{
color = 0;
glyphname = A;
lastChange = "2018-06-13 12:54:49 +0000";
layers = (
{
layerId = "943837FD-2EA4-424D-A655-FFF98A08080F";
paths = (
{
closed = 1;
nodes = (
"162 295 LINE",
"399 295 LINE",
"425 229 LINE",
"138 229 LINE"
);
},
{
closed = 1;
nodes = (
"307 641 LINE",
"98 0 LINE",
"16 0 LINE",
"249 641 LINE"
);
},
{
closed = 1;
nodes = (
"322 725 LINE",
"606 19 LINE",
"490 -26 LINE",
"213 689 LINE"
);
}
);
width = 622;
},
{
layerId = "4B9CF309-7C6C-4E8F-98F9-807C6FC76924";
paths = (
{
closed = 1;
nodes = (
"156 295 LINE",
"393 295 LINE",
"419 229 LINE",
"132 229 LINE"
);
},
{
closed = 1;
nodes = (
"301 641 LINE",
"92 0 LINE",
"10 0 LINE",
"243 641 LINE"
);
},
{
closed = 1;
nodes = (
"316 725 LINE",
"600 19 LINE",
"484 -26 LINE",
"207 689 LINE"
);
}
);
width = 600;
}
);
unicode = 0041;
},
{
color = 0;
glyphname = B;
lastChange = "2018-06-13 05:15:19 +0000";
layers = (
{
layerId = "943837FD-2EA4-424D-A655-FFF98A08080F";
paths = (
{
closed = 1;
nodes = (
"316 701 LINE SMOOTH",
"436 701 OFFCURVE",
"477 625 OFFCURVE",
"477 557 CURVE SMOOTH",
"477 440 OFFCURVE",
"390 382 OFFCURVE",
"299 346 CURVE",
"277 372 LINE",
"350 417 OFFCURVE",
"376 474 OFFCURVE",
"373 528 CURVE SMOOTH",
"370 590 OFFCURVE",
"308 652 OFFCURVE",
"225 652 CURVE SMOOTH",
"198 652 OFFCURVE",
"174 645 OFFCURVE",
"157 632 CURVE",
"161 3 LINE",
"50 5 LINE",
"48 700 LINE"
);
},
{
closed = 1;
nodes = (
"130 340 LINE",
"214 392 LINE",
"341 392 OFFCURVE",
"491 317 OFFCURVE",
"489 206 CURVE SMOOTH",
"486 70 OFFCURVE",
"389 -17 OFFCURVE",
"230 -17 CURVE SMOOTH",
"158 -17 OFFCURVE",
"91 -8 OFFCURVE",
"50 5 CURVE",
"141 70 LINE",
"176 45 OFFCURVE",
"212 31 OFFCURVE",
"270 33 CURVE SMOOTH",
"343 35 OFFCURVE",
"380 126 OFFCURVE",
"379 177 CURVE SMOOTH",
"376 292 OFFCURVE",
"232 329 OFFCURVE",
"131 317 CURVE"
);
}
);
width = 537;
},
{
layerId = "4B9CF309-7C6C-4E8F-98F9-807C6FC76924";
width = 600;
}
);
unicode = 0042;
},
{
color = 0;
glyphname = C;
lastChange = "2018-06-13 05:15:34 +0000";
layers = (
{
layerId = "943837FD-2EA4-424D-A655-FFF98A08080F";
paths = (
{
closed = 1;
nodes = (
"513 585 LINE",
"472 614 OFFCURVE",
"414 635 OFFCURVE",
"351 635 CURVE SMOOTH",
"182 635 OFFCURVE",
"133 500 OFFCURVE",
"133 380 CURVE SMOOTH",
"133 151 OFFCURVE",
"324 77 OFFCURVE",
"419 71 CURVE SMOOTH",
"486 67 OFFCURVE",
"538 95 OFFCURVE",
"583 130 CURVE",
"605 103 LINE",
"406 -23 LINE",
"165 -23 OFFCURVE",
"47 80 OFFCURVE",
"48 319 CURVE SMOOTH",
"49 601 OFFCURVE",
"309 719 OFFCURVE",
"425 719 CURVE SMOOTH",
"490 719 OFFCURVE",
"555 693 OFFCURVE",
"585 667 CURVE"
);
}
);
width = 653;
},
{
layerId = "4B9CF309-7C6C-4E8F-98F9-807C6FC76924";
width = 600;
}
);
unicode = 0043;
},
{
color = 0;
glyphname = D;
lastChange = "2018-06-13 05:15:40 +0000";
layers = (
{
layerId = "943837FD-2EA4-424D-A655-FFF98A08080F";
paths = (
{
closed = 1;
nodes = (
"160 32 LINE",
"160 644 LINE",
"385 651 OFFCURVE",
"527 553 OFFCURVE",
"527 294 CURVE SMOOTH",
"527 225 OFFCURVE",
"522 66 OFFCURVE",
"283 60 CURVE SMOOTH",
"223 58 OFFCURVE",
"185 66 OFFCURVE",
"143 97 CURVE",
"75 30 LINE",
"98 9 OFFCURVE",
"176 -12 OFFCURVE",
"213 -12 CURVE SMOOTH",
"525 -8 OFFCURVE",
"618 228 OFFCURVE",
"618 397 CURVE SMOOTH",
"618 610 OFFCURVE",
"483 698 OFFCURVE",
"273 700 CURVE SMOOTH",
"48 702 LINE",
"50 2 LINE"
);
}
);
width = 666;
},
{
layerId = "4B9CF309-7C6C-4E8F-98F9-807C6FC76924";
width = 600;
}
);
unicode = 0044;
},
{
color = 0;
glyphname = E;
lastChange = "2018-06-13 12:02:35 +0000";
layers = (
{
layerId = "943837FD-2EA4-424D-A655-FFF98A08080F";
paths = (
{
closed = 1;
nodes = (
"406 702 LINE",
"370 634 LINE",
"161 634 LINE",
"157 389 LINE",
"401 390 LINE",
"370 322 LINE",
"158 322 LINE",
"161 70 LINE",
"414 71 LINE",
"377 1 LINE",
"48 1 LINE",
"48 700 LINE"
);
}
);
width = 462;
},
{
layerId = "4B9CF309-7C6C-4E8F-98F9-807C6FC76924";
width = 600;
}
);
unicode = 0045;
},
{
color = 0;
glyphname = F;
lastChange = "2018-06-13 12:02:45 +0000";
layers = (
{
layerId = "943837FD-2EA4-424D-A655-FFF98A08080F";
paths = (
{
closed = 1;
nodes = (
"406 702 LINE",
"370 634 LINE",
"161 634 LINE",
"157 389 LINE",
"401 390 LINE",
"370 322 LINE",
"158 322 LINE",
"161 -1 LINE",
"48 1 LINE",
"48 700 LINE"
);
}
);
width = 454;
},
{
layerId = "4B9CF309-7C6C-4E8F-98F9-807C6FC76924";
width = 600;
}
);
unicode = 0046;
},
{
color = 0;
glyphname = G;
lastChange = "2018-06-13 12:02:53 +0000";
layers = (
{
layerId = "943837FD-2EA4-424D-A655-FFF98A08080F";
paths = (
{
closed = 1;
nodes = (
"49 601 OFFCURVE",
"309 719 OFFCURVE",
"425 719 CURVE SMOOTH",
"490 719 OFFCURVE",
"555 693 OFFCURVE",
"585 667 CURVE",
"513 585 LINE",
"472 614 OFFCURVE",
"414 635 OFFCURVE",
"351 635 CURVE SMOOTH",
"182 635 OFFCURVE",
"133 500 OFFCURVE",
"133 380 CURVE SMOOTH",
"133 151 OFFCURVE",
"324 77 OFFCURVE",
"419 71 CURVE SMOOTH",
"444 69 OFFCURVE",
"468 73 OFFCURVE",
"489 79 CURVE",
"491 316 LINE",
"340 318 LINE",
"391 383 LINE",
"605 386 LINE",
"605 103 LINE",
"406 -23 LINE",
"165 -23 OFFCURVE",
"47 80 OFFCURVE",
"48 319 CURVE SMOOTH"
);
}
);
width = 653;
},
{
layerId = "4B9CF309-7C6C-4E8F-98F9-807C6FC76924";
width = 600;
}
);
unicode = 0047;
},
{
color = 0;
glyphname = H;
lastChange = "2018-06-13 12:03:01 +0000";
layers = (
{
layerId = "943837FD-2EA4-424D-A655-FFF98A08080F";
paths = (
{
closed = 1;
nodes = (
"447 0 LINE",
"447 700 LINE",
"575 700 LINE",
"575 0 LINE"
);
},
{
closed = 1;
nodes = (
"48 0 LINE",
"48 700 LINE",
"176 700 LINE",
"176 0 LINE"
);
},
{
closed = 1;
nodes = (
"492 384 LINE",
"412 320 LINE",
"144 320 LINE",
"214 384 LINE"
);
}
);
width = 623;
},
{
layerId = "4B9CF309-7C6C-4E8F-98F9-807C6FC76924";
width = 600;
}
);
unicode = 0048;
},
{
color = 0;
glyphname = I;
lastChange = "2018-06-13 12:03:09 +0000";
layers = (
{
layerId = "943837FD-2EA4-424D-A655-FFF98A08080F";
paths = (
{
closed = 1;
nodes = (
"48 0 LINE",
"48 700 LINE",
"176 700 LINE",
"176 0 LINE"
);
}
);
width = 224;
},
{
layerId = "4B9CF309-7C6C-4E8F-98F9-807C6FC76924";
width = 600;
}
);
unicode = 0049;
},
{
color = 0;
glyphname = J;
lastChange = "2018-06-13 12:03:26 +0000";
layers = (
{
layerId = "943837FD-2EA4-424D-A655-FFF98A08080F";
paths = (
{
closed = 1;
nodes = (
"65 11 OFFCURVE",
"108 -25 OFFCURVE",
"140 -25 CURVE SMOOTH",
"186 -25 OFFCURVE",
"370 97 OFFCURVE",
"370 171 CURVE SMOOTH",
"370 698 LINE",
"244 697 LINE",
"248 97 LINE SMOOTH",
"248 62 OFFCURVE",
"231 57 OFFCURVE",
"199 57 CURVE SMOOTH",
"184 57 OFFCURVE",
"165 69 OFFCURVE",
"121 107 CURVE",
"48 40 LINE"
);
}
);
width = 418;
},
{
layerId = "4B9CF309-7C6C-4E8F-98F9-807C6FC76924";
width = 600;
}
);
unicode = 004A;
},
{
color = 0;
glyphname = K;
lastChange = "2018-06-13 12:03:34 +0000";
layers = (
{
layerId = "943837FD-2EA4-424D-A655-FFF98A08080F";
paths = (
{
closed = 1;
nodes = (
"48 0 LINE",
"48 700 LINE",
"176 700 LINE",
"176 0 LINE"
);
},
{
closed = 1;
nodes = (
"152 352 LINE",
"427 700 LINE",
"517 700 LINE",
"262 388 LINE",
"525 39 LINE",
"425 -24 LINE"
);
}
);
width = 573;
},
{
layerId = "4B9CF309-7C6C-4E8F-98F9-807C6FC76924";
width = 600;
}
);
unicode = 004B;
},
{
color = 0;
glyphname = L;
lastChange = "2018-06-13 12:03:48 +0000";
layers = (
{
layerId = "943837FD-2EA4-424D-A655-FFF98A08080F";
paths = (
{
closed = 1;
nodes = (
"176 701 LINE",
"176 65 LINE",
"414 66 LINE",
"377 1 LINE",
"48 1 LINE",
"48 700 LINE"
);
}
);
width = 462;
},
{
layerId = "4B9CF309-7C6C-4E8F-98F9-807C6FC76924";
width = 600;
}
);
unicode = 004C;
},
{
color = 0;
glyphname = M;
lastChange = "2018-06-13 12:03:55 +0000";
layers = (
{
layerId = "943837FD-2EA4-424D-A655-FFF98A08080F";
paths = (
{
closed = 1;
nodes = (
"248 700 LINE",
"419 153 LINE",
"630 700 LINE",
"758 700 LINE",
"788 0 LINE",
"660 0 LINE",
"634 549 LINE",
"419 0 LINE",
"350 0 LINE",
"163 572 LINE",
"130 0 LINE",
"48 0 LINE",
"120 700 LINE"
);
}
);
width = 836;
},
{
layerId = "4B9CF309-7C6C-4E8F-98F9-807C6FC76924";
width = 600;
}
);
unicode = 004D;
},
{
color = 0;
glyphname = N;
lastChange = "2018-06-13 12:04:02 +0000";
layers = (
{
layerId = "943837FD-2EA4-424D-A655-FFF98A08080F";
paths = (
{
closed = 1;
nodes = (
"590 705 LINE",
"527 703 LINE",
"516 145 LINE",
"544 157 LINE",
"154 726 LINE",
"48 677 LINE",
"529 -2 LINE",
"588 11 LINE"
);
},
{
closed = 1;
nodes = (
"152 643 LINE",
"99 642 LINE",
"94 1 LINE",
"166 5 LINE"
);
}
);
width = 638;
},
{
layerId = "4B9CF309-7C6C-4E8F-98F9-807C6FC76924";
width = 600;
}
);
unicode = 004E;
},
{
color = 0;
glyphname = O;
lastChange = "2018-06-13 12:46:53 +0000";
layers = (
{
layerId = "943837FD-2EA4-424D-A655-FFF98A08080F";
paths = (
{
closed = 1;
nodes = (
"196 -16 OFFCURVE",
"49 77 OFFCURVE",
"48 298 CURVE SMOOTH",
"47 559 OFFCURVE",
"266 721 OFFCURVE",
"401 721 CURVE SMOOTH",
"615 721 OFFCURVE",
"700 506 OFFCURVE",
"695 369 CURVE SMOOTH",
"688 192 OFFCURVE",
"551 -16 OFFCURVE",
"334 -16 CURVE SMOOTH"
);
},
{
closed = 1;
nodes = (
"523 71 OFFCURVE",
"594 116 OFFCURVE",
"595 312 CURVE SMOOTH",
"596 508 OFFCURVE",
"461 629 OFFCURVE",
"329 629 CURVE SMOOTH",
"179 629 OFFCURVE",
"128 478 OFFCURVE",
"129 375 CURVE SMOOTH",
"130 242 OFFCURVE",
"237 71 OFFCURVE",
"400 71 CURVE SMOOTH"
);
}
);
width = 743;
},
{
layerId = "4B9CF309-7C6C-4E8F-98F9-807C6FC76924";
width = 600;
}
);
unicode = 004F;
},
{
color = 0;
glyphname = P;
lastChange = "2018-06-13 12:47:06 +0000";
layers = (
{
layerId = "943837FD-2EA4-424D-A655-FFF98A08080F";
paths = (
{
closed = 1;
nodes = (
"48 700 LINE",
"226 700 LINE SMOOTH",
"307 700 OFFCURVE",
"484 708 OFFCURVE",
"487 527 CURVE SMOOTH",
"490 346 OFFCURVE",
"324 269 OFFCURVE",
"244 270 CURVE SMOOTH",
"164 271 OFFCURVE",
"124 294 OFFCURVE",
"106 302 CURVE",
"106 348 LINE",
"156 334 OFFCURVE",
"184 335 OFFCURVE",
"251 334 CURVE SMOOTH",
"328 333 OFFCURVE",
"373 369 OFFCURVE",
"375 462 CURVE SMOOTH",
"378 587 OFFCURVE",
"302 644 OFFCURVE",
"176 645 CURVE",
"176 0 LINE",
"48 0 LINE"
);
}
);
width = 535;
},
{
layerId = "4B9CF309-7C6C-4E8F-98F9-807C6FC76924";
width = 600;
}
);
unicode = 0050;
},
{
color = 0;
glyphname = Q;
lastChange = "2018-06-13 12:47:12 +0000";
layers = (
{
layerId = "943837FD-2EA4-424D-A655-FFF98A08080F";
paths = (
{
closed = 1;
nodes = (
"196 -16 OFFCURVE",
"49 77 OFFCURVE",
"48 298 CURVE SMOOTH",
"47 559 OFFCURVE",
"266 721 OFFCURVE",
"401 721 CURVE SMOOTH",
"615 721 OFFCURVE",
"700 506 OFFCURVE",
"695 369 CURVE SMOOTH",
"688 192 OFFCURVE",
"551 -16 OFFCURVE",
"334 -16 CURVE SMOOTH"
);
},
{
closed = 1;
nodes = (
"523 71 OFFCURVE",
"594 116 OFFCURVE",
"595 312 CURVE SMOOTH",
"596 508 OFFCURVE",
"461 629 OFFCURVE",
"329 629 CURVE SMOOTH",
"179 629 OFFCURVE",
"128 478 OFFCURVE",
"129 375 CURVE SMOOTH",
"130 242 OFFCURVE",
"237 71 OFFCURVE",
"400 71 CURVE SMOOTH"
);
},
{
closed = 1;
nodes = (
"243 176 OFFCURVE",
"318 225 OFFCURVE",
"399 225 CURVE SMOOTH",
"459 225 OFFCURVE",
"594 -47 OFFCURVE",
"612 -47 CURVE SMOOTH",
"630 -47 OFFCURVE",
"635 -33 OFFCURVE",
"647 -26 CURVE",
"668 -46 LINE",
"654 -72 OFFCURVE",
"580 -138 OFFCURVE",
"554 -138 CURVE SMOOTH",
"508 -138 OFFCURVE",
"370 152 OFFCURVE",
"318 154 CURVE SMOOTH",
"288 155 OFFCURVE",
"262 132 OFFCURVE",
"230 104 CURVE",
"205 132 LINE"
);
}
);
width = 743;
},
{
layerId = "4B9CF309-7C6C-4E8F-98F9-807C6FC76924";
width = 600;
}
);
unicode = 0051;
},
{
color = 0;
glyphname = R;
lastChange = "2018-06-13 12:52:54 +0000";
layers = (
{
layerId = "943837FD-2EA4-424D-A655-FFF98A08080F";
paths = (
{
closed = 1;
nodes = (
"48 700 LINE",
"236 700 LINE SMOOTH",
"317 700 OFFCURVE",
"475 691 OFFCURVE",
"477 536 CURVE SMOOTH",
"479 414 OFFCURVE",
"357 337 OFFCURVE",
"266 337 CURVE",
"267 355 LINE",
"516 38 LINE",
"417 -25 LINE",
"160 330 LINE",
"244 383 LINE",
"257 372 OFFCURVE",
"271 368 OFFCURVE",
"296 368 CURVE SMOOTH",
"333 368 OFFCURVE",
"367 441 OFFCURVE",
"366 500 CURVE SMOOTH",
"364 612 OFFCURVE",
"302 644 OFFCURVE",
"176 645 CURVE",
"176 0 LINE",
"48 0 LINE"
);
}
);
width = 564;
},
{
layerId = "4B9CF309-7C6C-4E8F-98F9-807C6FC76924";
width = 600;
}
);
unicode = 0052;
},
{
color = 0;
glyphname = S;
lastChange = "2018-06-13 12:52:59 +0000";
layers = (
{
layerId = "943837FD-2EA4-424D-A655-FFF98A08080F";
paths = (
{
closed = 1;
nodes = (
"124 -26 OFFCURVE",
"78 30 OFFCURVE",
"48 76 CURVE",
"147 146 LINE",
"180 94 OFFCURVE",
"224 59 OFFCURVE",
"281 55 CURVE SMOOTH",
"319 52 OFFCURVE",
"336 94 OFFCURVE",
"336 166 CURVE SMOOTH",
"336 240 OFFCURVE",
"262 269 OFFCURVE",
"212 297 CURVE SMOOTH",
"150 332 OFFCURVE",
"66 360 OFFCURVE",
"64 492 CURVE SMOOTH",
"62 654 OFFCURVE",
"239 724 OFFCURVE",
"294 724 CURVE SMOOTH",
"349 724 OFFCURVE",
"402 669 OFFCURVE",
"426 634 CURVE",
"334 571 LINE",
"310 604 OFFCURVE",
"274 641 OFFCURVE",
"212 644 CURVE SMOOTH",
"186 645 OFFCURVE",
"144 631 OFFCURVE",
"142 559 CURVE SMOOTH",
"140 487 OFFCURVE",
"224 430 OFFCURVE",
"275 407 CURVE SMOOTH",
"326 384 OFFCURVE",
"417 384 OFFCURVE",
"424 222 CURVE SMOOTH",
"431 60 OFFCURVE",
"267 -26 OFFCURVE",
"189 -26 CURVE SMOOTH"
);
}
);
width = 474;
},
{
layerId = "4B9CF309-7C6C-4E8F-98F9-807C6FC76924";
width = 600;
}
);
unicode = 0053;
},
{
color = 0;
glyphname = T;
lastChange = "2018-06-13 12:53:08 +0000";
layers = (
{
layerId = "943837FD-2EA4-424D-A655-FFF98A08080F";
paths = (
{
closed = 1;
nodes = (
"233 0 LINE",
"233 700 LINE",
"361 700 LINE",
"361 0 LINE"
);
},
{
closed = 1;
nodes = (
"556 700 LINE",
"506 636 LINE",
"48 636 LINE",
"91 700 LINE"
);
}
);
width = 604;
},
{
layerId = "4B9CF309-7C6C-4E8F-98F9-807C6FC76924";
width = 600;
}
);
unicode = 0054;
},
{
color = 0;
glyphname = U;
lastChange = "2018-06-13 12:53:14 +0000";
layers = (
{
layerId = "943837FD-2EA4-424D-A655-FFF98A08080F";
paths = (
{
closed = 1;
nodes = (
"440 0 LINE",
"440 700 LINE",
"568 700 LINE",
"568 0 LINE"
);
},
{
closed = 1;
nodes = (
"407 19 OFFCURVE",
"360 -23 OFFCURVE",
"252 -23 CURVE SMOOTH",
"125 -23 OFFCURVE",
"53 50 OFFCURVE",
"52 212 CURVE SMOOTH",
"48 698 LINE",
"164 700 LINE",
"155 269 LINE SMOOTH",
"153 107 OFFCURVE",
"258 57 OFFCURVE",
"320 58 CURVE SMOOTH",
"382 59 OFFCURVE",
"407 84 OFFCURVE",
"451 141 CURVE",
"451 79 LINE"
);
}
);
width = 616;
},
{
layerId = "4B9CF309-7C6C-4E8F-98F9-807C6FC76924";
width = 600;
}
);
unicode = 0055;
},
{
color = 0;
glyphname = V;
lastChange = "2018-06-13 12:53:22 +0000";
layers = (
{
layerId = "943837FD-2EA4-424D-A655-FFF98A08080F";
paths = (
{
closed = 1;
nodes = (
"347 86 LINE",
"367 86 LINE",
"157 712 LINE",
"48 681 LINE",
"269 0 LINE",
"377 0 LINE",
"632 704 LINE",
"552 702 LINE"
);
}
);
width = 680;
},
{
layerId = "4B9CF309-7C6C-4E8F-98F9-807C6FC76924";
width = 600;
}
);
unicode = 0056;
},
{
color = 0;
glyphname = W;
lastChange = "2018-06-13 12:53:30 +0000";
layers = (
{
layerId = "943837FD-2EA4-424D-A655-FFF98A08080F";
paths = (
{
closed = 1;
nodes = (
"648 86 LINE",
"668 86 LINE",
"458 712 LINE",
"349 681 LINE",
"570 0 LINE",
"678 0 LINE",
"933 704 LINE",
"853 702 LINE"
);
},
{
closed = 1;
nodes = (
"347 86 LINE",
"367 86 LINE",
"157 712 LINE",
"48 681 LINE",
"269 0 LINE",
"377 0 LINE",
"632 704 LINE",
"552 702 LINE"
);
}
);
width = 981;
},
{
layerId = "4B9CF309-7C6C-4E8F-98F9-807C6FC76924";
width = 600;
}
);
unicode = 0057;
},
{
color = 0;
glyphname = X;
lastChange = "2018-06-13 12:53:39 +0000";
layers = (
{
layerId = "943837FD-2EA4-424D-A655-FFF98A08080F";
paths = (
{
closed = 1;
nodes = (
"178 700 LINE",
"539 -1 LINE",
"405 1 LINE",
"58 700 LINE"
);
},
{
closed = 1;
nodes = (
"48 2 LINE",
"264 368 LINE",
"306 318 LINE",
"141 1 LINE"
);
},
{
closed = 1;
nodes = (
"443 701 LINE",
"535 701 LINE",
"328 360 LINE",
"291 407 LINE"
);
}
);
width = 587;
},
{
layerId = "4B9CF309-7C6C-4E8F-98F9-807C6FC76924";
width = 600;
}
);
unicode = 0058;
},
{
color = 0;
glyphname = Y;
lastChange = "2018-06-13 12:53:45 +0000";
layers = (
{
layerId = "943837FD-2EA4-424D-A655-FFF98A08080F";
paths = (
{
closed = 1;
nodes = (
"225 7 LINE",
"229 292 LINE",
"48 679 LINE",
"149 714 LINE",
"319 347 LINE",
"292 350 LINE",
"458 707 LINE",
"514 693 LINE",
"336 289 LINE",
"340 7 LINE"
);
}
);
width = 562;
},
{
layerId = "4B9CF309-7C6C-4E8F-98F9-807C6FC76924";
width = 600;
}
);
unicode = 0059;
},
{
color = 0;
glyphname = Z;
lastChange = "2018-06-13 12:53:52 +0000";
layers = (
{
layerId = "943837FD-2EA4-424D-A655-FFF98A08080F";
paths = (
{
closed = 1;
nodes = (
"48 0 LINE",
"365 617 LINE",
"55 616 LINE",
"90 700 LINE",
"504 700 LINE",
"191 85 LINE",
"512 87 LINE",
"486 0 LINE"
);
}
);
width = 560;
},
{
layerId = "4B9CF309-7C6C-4E8F-98F9-807C6FC76924";
width = 600;
}
);
unicode = 005A;
},
{
color = 0;
glyphname = a;
lastChange = "2018-06-13 05:02:30 +0000";
layers = (
{
layerId = "943837FD-2EA4-424D-A655-FFF98A08080F";
paths = (
{
closed = 1;
nodes = (
"428 0 LINE",
"428 350 LINE SMOOTH",
"428 481 OFFCURVE",
"302 508 OFFCURVE",
"212 508 CURVE SMOOTH",
"187 508 OFFCURVE",
"106 458 OFFCURVE",
"48 406 CURVE",
"72 384 LINE",
"114 421 OFFCURVE",
"156 436 OFFCURVE",
"199 436 CURVE SMOOTH",
"292 436 OFFCURVE",
"321 388 OFFCURVE",
"321 330 CURVE SMOOTH",
"321 -20 LINE"
);
},
{
closed = 1;
nodes = (
"335 99 LINE",
"300 76 OFFCURVE",
"275 70 OFFCURVE",
"247 70 CURVE SMOOTH",
"184 70 OFFCURVE",
"131 138 OFFCURVE",
"131 190 CURVE SMOOTH",
"131 229 OFFCURVE",
"157 250 OFFCURVE",
"204 250 CURVE SMOOTH",
"251 250 OFFCURVE",
"305 241 OFFCURVE",
"340 223 CURVE",
"343 290 LINE",
"208 290 LINE SMOOTH",
"112 290 OFFCURVE",
"31 207 OFFCURVE",
"30 126 CURVE SMOOTH",
"29 85 OFFCURVE",
"82 -20 OFFCURVE",
"163 -21 CURVE SMOOTH",
"204 -22 OFFCURVE",
"283 26 OFFCURVE",
"335 63 CURVE"
);
}
);
width = 458;
},
{
layerId = "4B9CF309-7C6C-4E8F-98F9-807C6FC76924";
width = 600;
}
);
unicode = 0061;
},
{
color = 0;
glyphname = b;
lastChange = "2018-06-13 05:00:59 +0000";
layers = (
{
layerId = "943837FD-2EA4-424D-A655-FFF98A08080F";
paths = (
{
closed = 1;
nodes = (
"348.565 106.077 OFFCURVE",
"412.69 182.96 OFFCURVE",
"413.887 270.151 CURVE SMOOTH",
"416 424 OFFCURVE",
"360.555 510 OFFCURVE",
"273 510 CURVE",
"158 453.817 LINE",
"158 720 LINE",
"30 700 LINE",
"30 60 LINE",
"64 36 OFFCURVE",
"143 9 OFFCURVE",
"220 7 CURVE",
"329 91 LINE SMOOTH"
);
},
{
closed = 1;
nodes = (
"158 409.771 LINE",
"212 436 LINE",
"253.209 436 OFFCURVE",
"296.76 360.517 OFFCURVE",
"297.1 294.575 CURVE SMOOTH",
"297.696 178.933 OFFCURVE",
"279 126 OFFCURVE",
"243 60 CURVE",
"220 60 OFFCURVE",
"183 69 OFFCURVE",
"158 90 CURVE"
);
}
);
width = 444;
},
{
layerId = "4B9CF309-7C6C-4E8F-98F9-807C6FC76924";
width = 600;
}
);
unicode = 0062;
},
{
color = 0;
glyphname = c;
lastChange = "2018-06-13 05:02:52 +0000";
layers = (
{
layerId = "943837FD-2EA4-424D-A655-FFF98A08080F";
paths = (
{
closed = 1;
nodes = (
"335 -10 OFFCURVE",
"390 24 OFFCURVE",
"438 64 CURVE",
"418 90 LINE",
"386 67 OFFCURVE",
"359 59 OFFCURVE",
"318 59 CURVE SMOOTH",
"267 59 OFFCURVE",
"144 101 OFFCURVE",
"143 281 CURVE SMOOTH",
"142 401 OFFCURVE",
"184 446 OFFCURVE",
"216 446 CURVE SMOOTH",
"255 446 OFFCURVE",
"305 410 OFFCURVE",
"329 352 CURVE",
"425 400 LINE",
"425 451 OFFCURVE",
"348 516 OFFCURVE",
"283 516 CURVE SMOOTH",
"230 516 OFFCURVE",
"31 421 OFFCURVE",
"32 215 CURVE SMOOTH",
"33 59 OFFCURVE",
"155 -10 OFFCURVE",
"260 -10 CURVE SMOOTH"
);
}
);
width = 470;
},
{
layerId = "4B9CF309-7C6C-4E8F-98F9-807C6FC76924";
width = 600;
}
);
unicode = 0063;
},
{
color = 0;
glyphname = d;
lastChange = "2018-06-13 05:02:58 +0000";
layers = (
{
layerId = "943837FD-2EA4-424D-A655-FFF98A08080F";
paths = (
{
closed = 1;
nodes = (
"474 0 LINE",
"474 720 LINE",
"360 700 LINE",
"360 0 LINE"
);
},
{
closed = 1;
nodes = (
"380 123 LINE",
"285 58 LINE",
"181 56 OFFCURVE",
"147 173 OFFCURVE",
"147 246 CURVE SMOOTH",
"147 342 OFFCURVE",
"158 457 OFFCURVE",
"232 457 CURVE SMOOTH",
"291 457 OFFCURVE",
"337 446 OFFCURVE",
"380 420 CURVE",
"380 503 LINE",
"359 509 OFFCURVE",
"325 517 OFFCURVE",
"282 517 CURVE SMOOTH",
"138 517 OFFCURVE",
"33 370 OFFCURVE",
"32 187 CURVE SMOOTH",
"31 23 OFFCURVE",
"148 -24 OFFCURVE",
"254 -22 CURVE",
"380 70 LINE"
);
}
);
width = 506;
},
{
layerId = "4B9CF309-7C6C-4E8F-98F9-807C6FC76924";
width = 600;
}
);
unicode = 0064;
},
{
color = 0;
glyphname = e;
lastChange = "2018-06-13 05:03:05 +0000";
layers = (
{
layerId = "943837FD-2EA4-424D-A655-FFF98A08080F";
paths = (
{
closed = 1;
nodes = (
"419 92 LINE",
"372 65 OFFCURVE",
"326 64 OFFCURVE",
"297 63 CURVE SMOOTH",
"208 61 OFFCURVE",
"135 181 OFFCURVE",
"135 270 CURVE SMOOTH",
"135 402 OFFCURVE",
"174 460 OFFCURVE",
"207 460 CURVE SMOOTH",
"279 460 OFFCURVE",
"321 375 OFFCURVE",
"321 303 CURVE",
"108 303 LINE",
"108 250 LINE",
"349 250 LINE",
"419 308 LINE",
"418 380 OFFCURVE",
"407 520 OFFCURVE",
"268 520 CURVE SMOOTH",
"145 520 OFFCURVE",
"32 434 OFFCURVE",
"32 217 CURVE SMOOTH",
"32 57 OFFCURVE",
"138 -12 OFFCURVE",
"287 -11 CURVE",
"430 66 LINE"
);
}
);
width = 462;
},
{
layerId = "4B9CF309-7C6C-4E8F-98F9-807C6FC76924";
width = 600;
}
);
unicode = 0065;
},
{
color = 0;
glyphname = f;
lastChange = "2018-06-13 05:12:56 +0000";
layers = (
{
layerId = "943837FD-2EA4-424D-A655-FFF98A08080F";
paths = (
{
closed = 1;
nodes = (
"86 0 LINE",
"86 566 LINE SMOOTH",
"86 622 OFFCURVE",
"212 750 OFFCURVE",
"263 750 CURVE SMOOTH",
"319 750 LINE",
"280 684 LINE",
"219 684 LINE SMOOTH",
"199 684 OFFCURVE",
"187 669 OFFCURVE",
"187 646 CURVE SMOOTH",
"195 0 LINE"
);
},
{
closed = 1;
nodes = (
"297 500 LINE",
"268 450 LINE",
"16 450 LINE",
"49 500 LINE"
);
}
);
width = 255;
},
{
layerId = "4B9CF309-7C6C-4E8F-98F9-807C6FC76924";
width = 600;
}
);
unicode = 0066;
},
{
color = 0;
glyphname = g;
lastChange = "2018-06-13 05:03:18 +0000";
layers = (
{
layerId = "943837FD-2EA4-424D-A655-FFF98A08080F";
paths = (
{
closed = 1;
nodes = (
"43 48 LINE",
"43 -2 OFFCURVE",
"147 -18 OFFCURVE",
"237 -17 CURVE SMOOTH",
"347 -16 OFFCURVE",
"366 -58 OFFCURVE",
"370 -102 CURVE SMOOTH",
"374 -146 OFFCURVE",
"347 -174 OFFCURVE",
"260 -176 CURVE SMOOTH",
"173 -178 OFFCURVE",
"127 -121 OFFCURVE",
"126 -90 CURVE SMOOTH",
"125 -68 OFFCURVE",
"144 -36 OFFCURVE",
"185 -3 CURVE",
"154 7 LINE",
"32 -129 LINE",
"33 -179 OFFCURVE",
"55 -250 OFFCURVE",
"201 -249 CURVE SMOOTH",
"347 -248 OFFCURVE",
"464 -161 OFFCURVE",
"456 -44 CURVE SMOOTH",
"448 73 OFFCURVE",
"276 69 OFFCURVE",
"238 67 CURVE SMOOTH",
"155 62 OFFCURVE",
"124 71 OFFCURVE",
"124 94 CURVE SMOOTH",
"124 114 OFFCURVE",
"140 135 OFFCURVE",
"151 153 CURVE",
"133 172 LINE"
);
},
{
closed = 1;
nodes = (
"173 510 OFFCURVE",
"36 404 OFFCURVE",
"39 288 CURVE SMOOTH",
"42 172 OFFCURVE",
"134 122 OFFCURVE",
"208 123 CURVE SMOOTH",
"302 124 OFFCURVE",
"453 210 OFFCURVE",
"453 342 CURVE SMOOTH",
"453 379 OFFCURVE",
"444 434 OFFCURVE",
"366 477 CURVE",
"366 449 LINE",
"459 478 LINE",
"459 510 LINE",
"273 510 LINE"
);
},
{
closed = 1;
nodes = (
"272 446 OFFCURVE",
"356 382 OFFCURVE",
"358 302 CURVE SMOOTH",
"360 212 OFFCURVE",
"311 189 OFFCURVE",
"269 188 CURVE SMOOTH",
"227 187 OFFCURVE",
"139 233 OFFCURVE",
"138 331 CURVE SMOOTH",
"137 409 OFFCURVE",
"171 446 OFFCURVE",
"221 446 CURVE SMOOTH"
);
}
);
width = 491;
},
{
layerId = "4B9CF309-7C6C-4E8F-98F9-807C6FC76924";
width = 600;
}
);
unicode = 0067;
},
{
color = 0;
glyphname = h;
lastChange = "2018-06-13 05:03:26 +0000";
layers = (
{
layerId = "943837FD-2EA4-424D-A655-FFF98A08080F";
paths = (
{
closed = 1;
nodes = (
"134 720 LINE",
"32 700 LINE",
"32 0 LINE",
"134 0 LINE"
);
},
{
closed = 1;
nodes = (
"113 384 LINE",
"214 434 LINE",
"260 434 OFFCURVE",
"327 414 OFFCURVE",
"327 330 CURVE SMOOTH",
"327 0 LINE",
"428 0 LINE",
"428 290 LINE SMOOTH",
"428 454 OFFCURVE",
"377 512 OFFCURVE",
"287 512 CURVE",
"113 428 LINE"
);
}
);
width = 460;
},
{
layerId = "4B9CF309-7C6C-4E8F-98F9-807C6FC76924";
width = 600;
}
);
unicode = 0068;
},
{
color = 0;
glyphname = i;
lastChange = "2018-06-13 05:03:32 +0000";
layers = (
{
layerId = "943837FD-2EA4-424D-A655-FFF98A08080F";
paths = (
{
closed = 1;
nodes = (
"160 0 LINE",
"160 520 LINE",
"32 500 LINE",
"32 0 LINE"
);
},
{
closed = 1;
nodes = (
"160 620 LINE",
"160 720 LINE",
"32 700 LINE",
"32 600 LINE"
);
}
);
width = 192;
},
{
layerId = "4B9CF309-7C6C-4E8F-98F9-807C6FC76924";
paths = (
{
closed = 1;
nodes = (
"318 0 LINE",
"318 520 LINE",
"30 500 LINE",
"30 0 LINE"
);
},
{
closed = 1;
nodes = (
"318 620 LINE",
"318 720 LINE",
"30 700 LINE",
"30 600 LINE"
);
}
);
width = 348;
}
);
unicode = 0069;
},
{
color = 0;
glyphname = j;
lastChange = "2018-06-13 05:00:59 +0000";
layers = (
{
layerId = "943837FD-2EA4-424D-A655-FFF98A08080F";
paths = (
{
closed = 1;
nodes = (
"139 -250 LINE",
"139 520 LINE",
"30 500 LINE",
"30 -270 LINE"
);
},
{
closed = 1;
nodes = (
"151 670 LINE",
"81 741 LINE",
"18 650 LINE",
"88 579 LINE"
);
}
);
width = 188;
},
{
layerId = "4B9CF309-7C6C-4E8F-98F9-807C6FC76924";
width = 600;
}
);
unicode = 006A;
},
{
color = 0;
glyphname = k;
lastChange = "2018-06-13 05:03:39 +0000";
layers = (
{
layerId = "943837FD-2EA4-424D-A655-FFF98A08080F";
paths = (
{
closed = 1;
nodes = (
"135 0 LINE",
"141 720 LINE",
"32 700 LINE",
"32 0 LINE"
);
},
{
closed = 1;
nodes = (
"128 262 LINE",
"128 239 LINE",
"350 -19 LINE",
"457 39 LINE",
"235 291 LINE",
"439 501 LINE",
"351 501 LINE"
);
}
);
width = 489;
},
{
layerId = "4B9CF309-7C6C-4E8F-98F9-807C6FC76924";
width = 554;
}
);
unicode = 006B;
},
{
color = 0;
glyphname = l;
lastChange = "2018-06-13 05:03:45 +0000";
layers = (
{
layerId = "943837FD-2EA4-424D-A655-FFF98A08080F";
paths = (
{
closed = 1;
nodes = (
"146 0 LINE",
"146 720 LINE",
"32 700 LINE",
"32 0 LINE"
);
}
);
width = 178;
},
{
layerId = "4B9CF309-7C6C-4E8F-98F9-807C6FC76924";
paths = (
{
closed = 1;
nodes = (
"244 0 LINE",
"244 720 LINE",
"30 700 LINE",
"30 0 LINE"
);
}
);
width = 268;
}
);
unicode = 006C;
},
{
color = 0;
glyphname = m;
lastChange = "2018-06-13 05:03:51 +0000";
layers = (
{
layerId = "943837FD-2EA4-424D-A655-FFF98A08080F";
paths = (
{
closed = 1;
nodes = (
"134 520 LINE",
"32 500 LINE",
"32 0 LINE",
"134 0 LINE"
);
},
{
closed = 1;
nodes = (
"113 384 LINE",
"187 430 LINE",
"233 430 OFFCURVE",
"301 414 OFFCURVE",
"301 330 CURVE SMOOTH",
"301 0 LINE",
"402 0 LINE",
"402 290 LINE SMOOTH",
"402 454 OFFCURVE",
"351 512 OFFCURVE",
"261 512 CURVE",
"113 428 LINE"
);
},
{
closed = 1;
nodes = (
"373 384 LINE",
"447 428 LINE",
"493 428 OFFCURVE",
"561 414 OFFCURVE",
"561 330 CURVE SMOOTH",
"561 0 LINE",
"662 0 LINE",
"662 290 LINE SMOOTH",
"662 454 OFFCURVE",
"611 512 OFFCURVE",
"521 512 CURVE",
"373 428 LINE"
);
}
);
width = 694;
},
{
layerId = "4B9CF309-7C6C-4E8F-98F9-807C6FC76924";
width = 600;
}
);
unicode = 006D;
},
{
color = 0;
glyphname = n;
lastChange = "2018-06-13 05:03:56 +0000";
layers = (
{
layerId = "943837FD-2EA4-424D-A655-FFF98A08080F";
paths = (
{
closed = 1;
nodes = (
"134 720 LINE",
"32 700 LINE",
"32 0 LINE",
"134 0 LINE"
);
},
{
closed = 1;
nodes = (
"113 384 LINE",
"214 434 LINE",
"260 434 OFFCURVE",
"327 414 OFFCURVE",
"327 330 CURVE SMOOTH",
"327 0 LINE",
"428 0 LINE",
"428 290 LINE SMOOTH",
"428 454 OFFCURVE",
"377 512 OFFCURVE",
"287 512 CURVE",
"113 428 LINE"
);
}
);
width = 460;
},
{
layerId = "4B9CF309-7C6C-4E8F-98F9-807C6FC76924";
paths = (
{
closed = 1;
nodes = (
"232 520 LINE",
"30 500 LINE",
"30 0 LINE",
"232 0 LINE"
);
},
{
closed = 1;
nodes = (
"211 384 LINE",
"284 420 LINE",
"309 420 OFFCURVE",
"325 412 OFFCURVE",
"325 330 CURVE SMOOTH",
"325 0 LINE",
"526 0 LINE",
"526 290 LINE SMOOTH",
"526 454 OFFCURVE",
"475 512 OFFCURVE",
"385 512 CURVE",
"211 428 LINE"
);
}
);
width = 556;
}
);
unicode = 006E;
},
{
color = 0;
glyphname = o;
lastChange = "2018-06-13 05:04:02 +0000";
layers = (
{
layerId = "943837FD-2EA4-424D-A655-FFF98A08080F";
paths = (
{
closed = 1;
nodes = (
"101 407 OFFCURVE",
"32 323 OFFCURVE",
"32 191 CURVE SMOOTH",
"32 41 OFFCURVE",
"162 -10 OFFCURVE",
"302 -10 CURVE",
"370 43 LINE SMOOTH",
"424 85 OFFCURVE",
"481 149 OFFCURVE",
"482 261 CURVE SMOOTH",
"484 441 OFFCURVE",
"365 510 OFFCURVE",
"237 510 CURVE",
"158 450 LINE SMOOTH"
);
},
{
closed = 1;
nodes = (
"131 391 OFFCURVE",
"172 441 OFFCURVE",
"237 441 CURVE SMOOTH",
"288 441 OFFCURVE",
"391 391 OFFCURVE",
"391 232 CURVE SMOOTH",
"391 129 OFFCURVE",
"380 71 OFFCURVE",
"287 71 CURVE SMOOTH",
"209 71 OFFCURVE",
"131 143 OFFCURVE",
"131 285 CURVE SMOOTH"
);
}
);
width = 514;
},
{
layerId = "4B9CF309-7C6C-4E8F-98F9-807C6FC76924";
width = 600;
}
);
unicode = 006F;
},
{
color = 0;
glyphname = p;
lastChange = "2018-06-13 05:04:14 +0000";
layers = (
{
layerId = "943837FD-2EA4-424D-A655-FFF98A08080F";
paths = (
{
closed = 1;
nodes = (
"143 504 LINE",
"140 -235 LINE",
"34 -248 LINE",
"32 470 LINE"
);
},
{
closed = 1;
nodes = (
"251 516 LINE",
"355 516 OFFCURVE",
"460 478 OFFCURVE",
"456 290 CURVE SMOOTH",
"452 102 OFFCURVE",
"321 -22 OFFCURVE",
"224 -18 CURVE SMOOTH",
"177 -16 OFFCURVE",
"118 16 OFFCURVE",
"94 34 CURVE SMOOTH",
"70 52 OFFCURVE",
"109 99 OFFCURVE",
"108 105 CURVE SMOOTH",
"107 111 OFFCURVE",
"212 45 OFFCURVE",
"268 48 CURVE SMOOTH",
"324 51 OFFCURVE",
"345 185 OFFCURVE",
"343 243 CURVE SMOOTH",
"341 301 OFFCURVE",
"313 439 OFFCURVE",
"220 441 CURVE SMOOTH",
"127 443 OFFCURVE",
"143 356 OFFCURVE",
"142 321 CURVE",
"100 423 LINE",
"135 433 LINE"
);
}
);
width = 488;
},
{
layerId = "4B9CF309-7C6C-4E8F-98F9-807C6FC76924";
width = 600;
}
);
unicode = 0070;
},
{
color = 0;
glyphname = q;
lastChange = "2018-06-13 05:04:19 +0000";
layers = (
{
layerId = "943837FD-2EA4-424D-A655-FFF98A08080F";
paths = (
{
closed = 1;
nodes = (
"461 -249 LINE",
"461 491 LINE",
"352 456 LINE",
"352 -270 LINE"
);
},
{
closed = 1;
nodes = (
"461 491 LINE",
"416 500 OFFCURVE",
"318 511 OFFCURVE",
"283 511 CURVE SMOOTH",
"149 511 OFFCURVE",
"30 404 OFFCURVE",
"32 205 CURVE SMOOTH",
"33 73 OFFCURVE",
"89 -19 OFFCURVE",
"228 -18 CURVE",
"374 65 LINE",
"352 112 LINE",
"334 86 OFFCURVE",
"311 71 OFFCURVE",
"288 71 CURVE SMOOTH",
"217 71 OFFCURVE",
"132 132 OFFCURVE",
"132 248 CURVE SMOOTH",
"132 319 OFFCURVE",
"160 451 OFFCURVE",
"214 451 CURVE SMOOTH",
"270 451 OFFCURVE",
"317 435 OFFCURVE",
"352 412 CURVE"
);
}
);
width = 493;
},
{
layerId = "4B9CF309-7C6C-4E8F-98F9-807C6FC76924";
width = 600;
}
);
unicode = 0071;
},
{
glyphname = r;
lastChange = "2018-06-13 05:04:34 +0000";
layers = (
{
layerId = "943837FD-2EA4-424D-A655-FFF98A08080F";
paths = (
{
closed = 1;
nodes = (
"143 0 LINE",
"143 520 LINE",
"32 500 LINE",
"32 0 LINE"
);
},
{
closed = 1;
nodes = (
"143 389 OFFCURVE",
"165 421 OFFCURVE",
"186 421 CURVE SMOOTH",
"210 421 OFFCURVE",
"231 384 OFFCURVE",
"241 361 CURVE",
"331 435 LINE",
"331 463 OFFCURVE",
"311 511 OFFCURVE",
"251 511 CURVE SMOOTH",
"215 511 OFFCURVE",
"167 490 OFFCURVE",
"143 441 CURVE",
"110 441 LINE",
"143 317 LINE"
);
}
);
width = 363;
},
{
layerId = "4B9CF309-7C6C-4E8F-98F9-807C6FC76924";
width = 600;
}
);
unicode = 0072;
},
{
color = 0;
glyphname = s;
lastChange = "2018-06-13 05:04:41 +0000";
layers = (
{
layerId = "943837FD-2EA4-424D-A655-FFF98A08080F";
paths = (
{
closed = 1;
nodes = (
"106 -16 OFFCURVE",
"30 39 OFFCURVE",
"32 96 CURVE",
"121 144 LINE",
"139 97 OFFCURVE",
"177 49 OFFCURVE",
"211 49 CURVE SMOOTH",
"237 49 OFFCURVE",
"255 67 OFFCURVE",
"256 110 CURVE SMOOTH",
"258 181 OFFCURVE",
"32 247 OFFCURVE",
"32 350 CURVE SMOOTH",
"32 411 OFFCURVE",
"161 518 OFFCURVE",
"214 518 CURVE SMOOTH",
"277 518 OFFCURVE",
"336 443 OFFCURVE",
"339 407 CURVE",
"258 362 LINE",
"245 411 OFFCURVE",
"187 447 OFFCURVE",
"161 447 CURVE SMOOTH",
"135 447 OFFCURVE",
"110 416 OFFCURVE",
"111 396 CURVE",
"106 325 OFFCURVE",
"337 269 OFFCURVE",
"337 161 CURVE SMOOTH",
"337 57 OFFCURVE",
"236 -16 OFFCURVE",
"170 -16 CURVE SMOOTH"
);
}
);
width = 371;
},
{
layerId = "4B9CF309-7C6C-4E8F-98F9-807C6FC76924";
width = 600;
}
);
unicode = 0073;
},
{
color = 0;
glyphname = t;
lastChange = "2018-06-13 05:11:36 +0000";
layers = (
{
layerId = "943837FD-2EA4-424D-A655-FFF98A08080F";
paths = (
{
closed = 1;
nodes = (
"347 62 LINE",
"308 21 OFFCURVE",
"242 -20 OFFCURVE",
"175 -19 CURVE SMOOTH",
"111 -18 OFFCURVE",
"97 29 OFFCURVE",
"97 108 CURVE SMOOTH",
"99 582 LINE",
"196 622 LINE",
"196 145 LINE SMOOTH",
"196 86 OFFCURVE",
"220 61 OFFCURVE",
"255 61 CURVE SMOOTH",
"273 61 OFFCURVE",
"304 69 OFFCURVE",
"331 82 CURVE"
);
},
{
closed = 1;
nodes = (
"313 500 LINE",
"284 450 LINE",
"32 450 LINE",
"65 500 LINE"
);
}
);
width = 379;
},
{
layerId = "4B9CF309-7C6C-4E8F-98F9-807C6FC76924";
width = 600;
}
);
unicode = 0074;
},
{
color = 0;
glyphname = u;
lastChange = "2018-06-13 05:11:51 +0000";
layers = (
{
layerId = "943837FD-2EA4-424D-A655-FFF98A08080F";
paths = (
{
closed = 1;
nodes = (
"326 0 LINE",
"428 0 LINE",
"428 520 LINE",
"326 500 LINE"
);
},
{
closed = 1;
nodes = (
"347 116 LINE",
"246 63 LINE",
"200 63 OFFCURVE",
"133 86 OFFCURVE",
"133 170 CURVE SMOOTH",
"133 520 LINE",
"32 500 LINE",
"32 210 LINE SMOOTH",
"32 46 OFFCURVE",
"83 -12 OFFCURVE",
"173 -12 CURVE",
"347 72 LINE"
);
}
);
width = 460;
},
{
layerId = "4B9CF309-7C6C-4E8F-98F9-807C6FC76924";
width = 600;
}
);
unicode = 0075;
},
{
color = 0;
glyphname = v;
lastChange = "2018-06-13 05:11:57 +0000";
layers = (
{
layerId = "943837FD-2EA4-424D-A655-FFF98A08080F";
paths = (
{
closed = 1;
nodes = (
"139 528 LINE",
"292 78 LINE",
"270 78 LINE",
"409 500 LINE",
"484 500 LINE",
"299 0 LINE",
"215 -18 LINE",
"32 500 LINE"
);
}
);
width = 516;
},
{
layerId = "4B9CF309-7C6C-4E8F-98F9-807C6FC76924";
width = 600;
}
);
unicode = 0076;
},
{
color = 0;
glyphname = w;
lastChange = "2018-06-13 05:12:02 +0000";
layers = (
{
layerId = "943837FD-2EA4-424D-A655-FFF98A08080F";
paths = (
{
closed = 1;
nodes = (
"419 528 LINE",
"528 73 LINE",
"506 73 LINE",
"619 500 LINE",
"697 509 LINE",
"540 0 LINE",
"445 -18 LINE",
"312 500 LINE"
);
},
{
closed = 1;
nodes = (
"139 528 LINE",
"248 73 LINE",
"226 73 LINE",
"339 485 LINE",
"389 451 LINE",
"260 0 LINE",
"165 -18 LINE",
"32 500 LINE"
);
}
);
width = 729;
},
{
layerId = "4B9CF309-7C6C-4E8F-98F9-807C6FC76924";
width = 600;
}
);
unicode = 0077;
},
{
color = 0;
glyphname = x;
lastChange = "2018-06-13 05:12:07 +0000";
layers = (
{
layerId = "943837FD-2EA4-424D-A655-FFF98A08080F";
paths = (
{
closed = 1;
nodes = (
"40 2 LINE",
"409 504 LINE",
"488 503 LINE",
"115 -3 LINE"
);
},
{
closed = 1;
nodes = (
"476 2 LINE",
"356 -18 LINE",
"32 479 LINE",
"137 521 LINE"
);
}
);
width = 520;
},
{
layerId = "4B9CF309-7C6C-4E8F-98F9-807C6FC76924";
width = 600;
}
);
unicode = 0078;
},
{
color = 0;
glyphname = y;
lastChange = "2018-06-13 05:12:21 +0000";
layers = (
{
layerId = "943837FD-2EA4-424D-A655-FFF98A08080F";
paths = (
{
closed = 1;
nodes = (
"495 501 LINE",
"420 500 LINE",
"276 108 LINE",
"307 111 LINE",
"139 522 LINE",
"32 487 LINE",
"236 -2 LINE",
"140 -220 LINE",
"198 -247 LINE"
);
}
);
width = 527;
},
{
layerId = "4B9CF309-7C6C-4E8F-98F9-807C6FC76924";
width = 600;
}
);
unicode = 0079;
},
{
color = 0;
glyphname = z;
lastChange = "2018-06-13 05:12:13 +0000";
layers = (
{
layerId = "943837FD-2EA4-424D-A655-FFF98A08080F";
paths = (
{
closed = 1;
nodes = (
"81 500 LINE",
"385 500 LINE",
"398 476 LINE",
"119 60 LINE",
"120 83 LINE",
"414 83 LINE",
"398 1 LINE",
"38 1 LINE",
"32 38 LINE",
"304 455 LINE",
"302 418 LINE",
"48 420 LINE"
);
}
);
width = 446;
},
{
layerId = "4B9CF309-7C6C-4E8F-98F9-807C6FC76924";
width = 600;
}
);
unicode = 007A;
},
{
glyphname = period;
lastChange = "2018-06-13 12:54:01 +0000";
layers = (
{
layerId = "943837FD-2EA4-424D-A655-FFF98A08080F";
paths = (
{
closed = 1;
nodes = (
"172 -5 OFFCURVE",
"208 31 OFFCURVE",
"208 75 CURVE SMOOTH",
"208 119 OFFCURVE",
"172 155 OFFCURVE",
"128 155 CURVE SMOOTH",
"84 155 OFFCURVE",
"48 119 OFFCURVE",
"48 75 CURVE SMOOTH",
"48 31 OFFCURVE",
"84 -5 OFFCURVE",
"128 -5 CURVE SMOOTH"
);
}
);
width = 256;
},
{
layerId = "4B9CF309-7C6C-4E8F-98F9-807C6FC76924";
width = 600;
}
);
unicode = 002E;
},
{
glyphname = exclam;
lastChange = "2018-06-13 02:52:01 +0000";
layers = (
{
layerId = "943837FD-2EA4-424D-A655-FFF98A08080F";
paths = (
{
closed = 1;
nodes = (
"30 166 LINE",
"30 700 LINE",
"158 700 LINE",
"158 166 LINE"
);
},
{
closed = 1;
nodes = (
"138 -2 OFFCURVE",
"169 29 OFFCURVE",
"169 67 CURVE SMOOTH",
"169 106 OFFCURVE",
"138 137 OFFCURVE",
"100 137 CURVE SMOOTH",
"61 137 OFFCURVE",
"30 106 OFFCURVE",
"30 67 CURVE SMOOTH",
"30 29 OFFCURVE",
"61 -2 OFFCURVE",
"100 -2 CURVE SMOOTH"
);
}
);
width = 600;
},
{
layerId = "4B9CF309-7C6C-4E8F-98F9-807C6FC76924";
width = 600;
}
);
unicode = 0021;
},
